<?xml version="1.0" encoding="UTF-8"?>
<svg width="645px" height="537px" viewBox="0 0 645 537" version="1.1" xmlns="http://www.w3.org/2000/svg"
     xmlns:xlink="http://www.w3.org/1999/xlink">
    <!-- Generator: Sketch 57 (83077) - https://sketch.com -->
    <title>编组 12</title>
    <desc>Created with Sketch.</desc>
    <defs>
        <linearGradient x1="50%" y1="0%" x2="50%" y2="100%" id="linearGradient-1">
            <stop stop-color="#FAFAFA" offset="0%"></stop>
            <stop stop-color="#EFEFEF" offset="100%"></stop>
        </linearGradient>
        <path d="M175.423783,1.53432188 L4.96914718,30.4167204 C2.24653141,30.8780494 0.413396321,33.4591466 0.874725362,36.1817624 C0.876942705,36.1948485 0.879212145,36.2079256 0.881533628,36.2209936 L20.2616276,145.314438 C21.0282606,149.629929 25.1247146,152.525019 29.4485839,151.80714 L193.873536,124.508189 C198.23215,123.784542 201.178873,119.664555 200.455226,115.305941 C200.451135,115.281301 200.446929,115.256679 200.442607,115.232078 L181.183687,5.59896522 C180.707952,2.89080316 178.134771,1.07496313 175.423783,1.53432188 Z"
              id="path-2"></path>
        <path d="M3.61348959,6.2306063 L54.7286663,2.68256499 C55.2792252,2.64434922 55.7566591,3.05937456 55.7954403,3.60989399 L59.1999274,51.9383638 C59.2387368,52.4892833 58.8235896,52.967353 58.2726701,53.0061624 C58.2723286,53.0061865 58.2719871,53.0062103 58.2716455,53.0062341 L7.15646887,56.5542754 C6.60590991,56.5924911 6.12847605,56.1774658 6.08969485,55.6269464 L2.68520769,7.29847652 C2.6463983,6.74755704 3.06154556,6.26948733 3.61246504,6.23067795 C3.61280654,6.23065389 3.61314806,6.23063001 3.61348959,6.2306063 Z"
              id="path-4"></path>
        <path d="M0.998624725,3.61721628 L52.1138014,0.0691749778 C52.6643604,0.0309592054 53.1417942,0.445984549 53.1805754,0.996503976 L56.5850626,49.3249738 C56.623872,49.8758933 56.2087247,50.353963 55.6578052,50.3927724 C55.6574637,50.3927965 55.6571222,50.3928203 55.6567807,50.392844 L4.54160401,53.9408853 C3.99104504,53.9791011 3.51361119,53.5640758 3.47482998,53.0135563 L0.0703428207,4.68508651 C0.0315334334,4.13416702 0.446680691,3.65609732 0.997600174,3.61728793 C0.997941679,3.61726387 0.998283196,3.61723999 0.998624725,3.61721628 Z"
              id="path-6"></path>
        <linearGradient x1="87.1978221%" y1="35.5778479%" x2="4.82073155%" y2="66.7050512%" id="linearGradient-8">
            <stop stop-color="#FDFDFD" offset="0%"></stop>
            <stop stop-color="#F2F2F2" offset="100%"></stop>
        </linearGradient>
    </defs>
    <g id="页面-1" stroke="none" stroke-width="1" fill="none" fill-rule="evenodd">
        <g id="PC验证码登录" transform="translate(-945.000000, -190.000000)">
            <g id="编组-12" transform="translate(945.000000, 190.000000)">
                <g id="编组-11">
                    <g id="路径-77" transform="translate(0.000000, 30.443505)">
                        <g id="编组" transform="translate(0.000000, 0.046045)">
                            <path d="M139.777601,165.010839 C249.289014,137.298452 323.838811,20.1419195 436.278,2.79772112 C482.872277,-4.38997255 526.26073,0.836807483 570.18,35.4642252 C611.011115,67.6568345 635.922061,112.13499 641.788074,153.17044 C652.848953,230.558146 633.673277,283.697076 572.365155,342.569784 C522.045568,390.889623 458.429392,423.232067 392.203581,445.211548 C322.379716,468.385348 249.587108,482.61003 176.171291,487.426508 C137.683966,489.952785 99.459,484.158028 67.119223,463.149857 C38.5561824,444.593917 18.2116622,417.658577 8.86264865,384.918027 C-4.51151351,338.077366 -4.24305405,284.981993 20.0516554,242.753966 C40.0989527,207.908765 61.7875135,190.102868 106.664696,174.682996 C117.543405,170.944977 128.625203,167.833301 139.777601,165.010839 Z"
                                  id="Fill-1" fill="url(#linearGradient-1)"></path>
                            <g id="编组-6" transform="translate(64.118520, 223.009281)">
                                <path d="M252.266427,125.48908 L300.28776,189.481235 C301.613725,191.248186 301.256235,193.755488 299.489285,195.081453 C299.006295,195.4439 298.447512,195.69229 297.85484,195.807993 L271.986904,200.858028 L271.986904,200.858028 L279.770524,244.384837 C280.742718,249.821443 277.123596,255.016801 271.68699,255.988994 C271.657752,255.994223 271.628491,255.999321 271.599208,256.004289 L111.357325,283.188128 C106.013029,284.094748 100.919455,280.578282 99.8729309,275.259612 L98.0953274,266.225433 L98.0953274,266.225433 L246.212206,125.48908 L252.266427,125.48908 Z"
                                      id="路径-79" fill="#8C8C8C"></path>
                                <g id="路径-80" transform="translate(73.412471, 127.231340)">
                                    <mask id="mask-3" fill="white">
                                        <use xlink:href="#path-2"></use>
                                    </mask>
                                    <use id="蒙版" fill="#FFFFFF" xlink:href="#path-2"></use>
                                    <path d="M8.51635839,28.7549245 L-1.29368559,25.3275309 L49.5607746,97.0461016 C50.9077034,98.9456361 53.2320661,99.8942884 55.5234744,99.4796841 L229.19176,68.0563791 L229.19176,68.0563791 L181.632299,-4.20555924 L8.51635839,28.7549245 Z"
                                          fill="#D8D8D8" mask="url(#mask-3)"></path>
                                </g>
                                <path d="M105.210237,152.207326 L105.722547,154.10532 C105.990508,155.098055 106.967571,155.725835 107.981875,155.556978 L219.119485,137.055257 C220.20906,136.873869 220.94529,135.843551 220.763903,134.753977 C220.753885,134.693803 220.74112,134.634118 220.725647,134.575111 L220.041419,131.965789 L220.041419,131.965789 L105.210237,152.207326 Z"
                                      id="路径-76" stroke="#191919" fill="#191919"></path>
                                <polygon id="路径-78" fill="#4A4A4A"
                                         points="58.051808 80.621713 76.929195 154.525383 249.293261 123.025781 242.73103 32.4085962 53.8944471 65.3769379"></polygon>
                                <path d="M55.0546514,64.823103 L76.2314056,151.097183 C76.5437136,152.369525 77.7852894,153.184962 79.0769889,152.966092 L244.843231,124.87811 C247.145837,124.487949 248.76729,122.401138 248.576394,120.073525 L241.58066,34.773861 C241.377515,32.296896 239.204856,30.4536005 236.727891,30.6567454 C236.572086,30.6695235 236.417053,30.6904119 236.263422,30.7193255 L55.0546514,64.823103 Z"
                                      id="路径-75" stroke="#191919" stroke-width="9"></path>
                                <path d="M157.591236,125.609067 L157.59142,134.939817 L172.962887,123.025594 L248.920505,112.542493 C254.857693,111.723086 259.279906,106.648635 259.279906,100.65517 L259.279906,81.5887932 C259.279906,76.6182305 255.250468,72.5887932 250.279906,72.5887932 C249.87402,72.5887932 249.468599,72.6162504 249.066419,72.6709768 L119.831313,90.2565655 C113.264414,91.1501522 108.665286,97.1980707 109.558873,103.764969 C109.593279,104.017823 109.635743,104.269514 109.686199,104.519659 L112.934797,120.625371 C114.194464,126.870477 120.114776,131.042662 126.419731,130.128526 L157.591236,125.609067 L157.591236,125.609067 Z"
                                      id="路径-74" fill="#CCCCCC"
                                      transform="translate(183.218519, 103.110500) rotate(-2.000000) translate(-183.218519, -103.110500) "></path>
                                <path d="M10.0272646,23.1308953 L145.032606,1.81185047 C151.03338,0.864252603 156.666148,4.96066134 157.613746,10.9614355 C157.644893,11.1586732 157.670662,11.3567224 157.691027,11.5553629 L161.944229,53.0415343 C162.434695,57.825623 159.07736,62.1500244 154.320984,62.86062 C146.940328,63.9632791 135.275624,65.7059686 119.326873,68.0886884 C119.88114,72.4940988 120.627082,76.5449337 121.564698,80.2411932 C118.732304,79.3010309 111.240458,76.258024 99.0891599,71.1121727 C74.2262076,74.8266609 49.3632552,78.5411491 24.5003029,82.2556374 C20.025018,82.9242383 15.7491452,80.1661122 14.5128844,75.813313 L2.77349206,34.4796241 C1.41548648,29.6981688 4.19074082,24.7211524 8.97219613,23.3631468 C9.31891771,23.2646727 9.67124178,23.1871158 10.0272646,23.1308953 Z"
                                      id="路径-73" fill="#E1E1E1"></path>
                                <g id="编组-40"
                                   transform="translate(171.115626, 185.119141) rotate(-10.000000) translate(-171.115626, -185.119141) translate(88.350139, 155.644624)"
                                   fill="#191919">
                                    <rect id="矩形" x="0" y="0" width="8.71621622" height="3.48452002" rx="1"></rect>
                                    <rect id="矩形备份-33" x="0" y="6.09791004" width="8.71621622" height="8.71130005"
                                          rx="1"></rect>
                                    <rect id="矩形备份-48" x="0" y="17.4226001" width="8.71621622" height="8.71130005"
                                          rx="1"></rect>
                                    <rect id="矩形备份-19" x="11.3310811" y="0" width="8.71621622" height="3.48452002"
                                          rx="1"></rect>
                                    <rect id="矩形备份-34" x="11.3310811" y="6.09791004" width="8.71621622"
                                          height="8.71130005" rx="1"></rect>
                                    <rect id="矩形备份-49" x="11.3310811" y="17.4226001" width="8.71621622"
                                          height="8.71130005" rx="1"></rect>
                                    <rect id="矩形备份-92" x="33.1216216" y="49.6544103" width="14.8175676"
                                          height="8.71130005" rx="1"></rect>
                                    <rect id="矩形备份-93" x="106.337838" y="49.6544103" width="14.8175676"
                                          height="8.71130005" rx="1"></rect>
                                    <rect id="矩形备份-20" x="22.6621622" y="0" width="8.36756757" height="3.48452002"
                                          rx="1"></rect>
                                    <rect id="矩形备份-35" x="22.6621622" y="6.09791004" width="8.58002534"
                                          height="8.71130005" rx="1"></rect>
                                    <rect id="矩形备份-50" x="22.6621622" y="17.4226001" width="8.58002534"
                                          height="8.71130005" rx="1"></rect>
                                    <rect id="矩形备份-63" x="4.4408921e-15" y="49.6544103" width="8.58002534"
                                          height="8.71130005" rx="1"></rect>
                                    <rect id="矩形备份-21" x="33.1216216" y="0" width="8.71621622" height="3.48452002"
                                          rx="1"></rect>
                                    <rect id="矩形备份-36" x="33.1216216" y="6.09791004" width="8.71621622"
                                          height="8.71130005" rx="1"></rect>
                                    <rect id="矩形备份-51" x="33.1216216" y="17.4226001" width="8.71621622"
                                          height="8.71130005" rx="1"></rect>
                                    <rect id="矩形备份-90" x="10.4594595" y="49.6544103" width="8.71621622"
                                          height="8.71130005" rx="1"></rect>
                                    <rect id="矩形备份-22" x="44.4527027" y="0" width="8.71621622" height="3.48452002"
                                          rx="1"></rect>
                                    <rect id="矩形备份-37" x="44.4527027" y="6.09791004" width="8.71621622"
                                          height="8.71130005" rx="1"></rect>
                                    <rect id="矩形备份-52" x="44.4527027" y="17.4226001" width="8.71621622"
                                          height="8.71130005" rx="1"></rect>
                                    <rect id="矩形备份-91" x="21.7905405" y="49.6544103" width="8.71621622"
                                          height="8.71130005" rx="1"></rect>
                                    <rect id="矩形备份-95" x="134.22973" y="54.8811903" width="8.71621622"
                                          height="3.48452002" rx="1"></rect>
                                    <rect id="矩形备份-96" x="145.560811" y="54.8811903" width="8.71621622"
                                          height="3.48452002" rx="1"></rect>
                                    <rect id="矩形备份-98" x="145.560811" y="49.6544103" width="8.71621622"
                                          height="3.48452002" rx="1"></rect>
                                    <rect id="矩形备份-97" x="156.02027" y="54.8811903" width="8.71621622"
                                          height="3.48452002" rx="1"></rect>
                                    <rect id="矩形备份-94" x="123.77027" y="49.6544103" width="8.71621622"
                                          height="8.71130005" rx="1"></rect>
                                    <rect id="矩形备份-23" x="55.7837838" y="0" width="8.71621622" height="3.48452002"
                                          rx="1"></rect>
                                    <rect id="矩形备份-38" x="55.7837838" y="6.09791004" width="8.71621622"
                                          height="8.71130005" rx="1"></rect>
                                    <rect id="矩形备份-53" x="55.7837838" y="17.4226001" width="8.71621622"
                                          height="8.71130005" rx="1"></rect>
                                    <rect id="矩形备份-24" x="67.1148649" y="0" width="8.71621622" height="3.48452002"
                                          rx="1"></rect>
                                    <rect id="矩形备份-39" x="67.1148649" y="6.09791004" width="8.71621622"
                                          height="8.71130005" rx="1"></rect>
                                    <rect id="矩形备份-54" x="67.1148649" y="17.4226001" width="8.71621622"
                                          height="8.71130005" rx="1"></rect>
                                    <rect id="矩形备份-25" x="78.4459459" y="0" width="8.36756757" height="3.48452002"
                                          rx="1"></rect>
                                    <rect id="矩形备份-40" x="78.4459459" y="6.09791004" width="8.58002534"
                                          height="8.71130005" rx="1"></rect>
                                    <rect id="矩形备份-55" x="78.4459459" y="17.4226001" width="8.58002534"
                                          height="8.71130005" rx="1"></rect>
                                    <rect id="矩形备份-26" x="88.9054054" y="0" width="8.71621622" height="3.48452002"
                                          rx="1"></rect>
                                    <rect id="矩形备份-41" x="88.9054054" y="6.09791004" width="8.71621622"
                                          height="8.71130005" rx="1"></rect>
                                    <rect id="矩形备份-56" x="88.9054054" y="17.4226001" width="8.71621622"
                                          height="8.71130005" rx="1"></rect>
                                    <rect id="矩形备份-27" x="100.236486" y="0" width="8.71621622" height="3.48452002"
                                          rx="1"></rect>
                                    <rect id="矩形备份-42" x="100.236486" y="6.09791004" width="8.71621622"
                                          height="8.71130005" rx="1"></rect>
                                    <rect id="矩形备份-57" x="100.236486" y="17.4226001" width="8.71621622"
                                          height="8.71130005" rx="1"></rect>
                                    <rect id="矩形备份-28" x="111.567568" y="0" width="8.71621622" height="3.48452002"
                                          rx="1"></rect>
                                    <rect id="矩形备份-43" x="111.567568" y="6.09791004" width="8.71621622"
                                          height="8.71130005" rx="1"></rect>
                                    <rect id="矩形备份-58" x="111.567568" y="17.4226001" width="8.71621622"
                                          height="8.71130005" rx="1"></rect>
                                    <rect id="矩形备份-29" x="122.898649" y="0" width="8.71621622" height="3.48452002"
                                          rx="1"></rect>
                                    <rect id="矩形备份-44" x="122.898649" y="6.09791004" width="8.71621622"
                                          height="8.71130005" rx="1"></rect>
                                    <rect id="矩形备份-59" x="122.898649" y="17.4226001" width="8.71621622"
                                          height="8.71130005" rx="1"></rect>
                                    <rect id="矩形备份-30" x="134.22973" y="0" width="8.36756757" height="3.48452002"
                                          rx="1"></rect>
                                    <rect id="矩形备份-45" x="134.22973" y="6.09791004" width="8.58002534"
                                          height="8.71130005" rx="1"></rect>
                                    <rect id="矩形备份-60" x="134.22973" y="17.4226001" width="8.58002534"
                                          height="8.71130005" rx="1"></rect>
                                    <rect id="矩形备份-31" x="144.689189" y="0" width="8.71621622" height="3.48452002"
                                          rx="1"></rect>
                                    <rect id="矩形备份-46" x="144.689189" y="6.09791004" width="8.71621622"
                                          height="8.71130005" rx="1"></rect>
                                    <rect id="矩形备份-61" x="144.689189" y="17.4226001" width="8.71621622"
                                          height="8.71130005" rx="1"></rect>
                                    <rect id="矩形备份-32" x="156.02027" y="0" width="8.71621622" height="3.48452002"
                                          rx="1"></rect>
                                    <rect id="矩形备份-47" x="156.02027" y="6.09791004" width="8.71621622"
                                          height="8.71130005" rx="1"></rect>
                                    <rect id="矩形备份-62" x="156.02027" y="17.4226001" width="8.71621622"
                                          height="8.71130005" rx="1"></rect>
                                    <rect id="矩形备份-76" x="0" y="28.7472902" width="20.0472973" height="8.71130005"
                                          rx="1"></rect>
                                    <rect id="矩形备份-88" x="0" y="39.2008502" width="24.4054054" height="8.71130005"
                                          rx="1"></rect>
                                    <rect id="矩形备份-89" x="49.6824324" y="49.6544103" width="54.0405405"
                                          height="8.71130005" rx="1"></rect>
                                    <g id="编组-39" transform="translate(22.662162, 28.747290)">
                                        <rect id="矩形备份-75" x="4.4408921e-15" y="0" width="8.58002534"
                                              height="8.71130005" rx="1"></rect>
                                        <rect id="矩形备份-74" x="10.4594595" y="0" width="8.71621622" height="8.71130005"
                                              rx="1"></rect>
                                        <rect id="矩形备份-73" x="21.7905405" y="0" width="8.71621622" height="8.71130005"
                                              rx="1"></rect>
                                        <rect id="矩形备份-72" x="33.1216216" y="0" width="8.71621622" height="8.71130005"
                                              rx="1"></rect>
                                        <rect id="矩形备份-71" x="44.4527027" y="0" width="8.71621622" height="8.71130005"
                                              rx="1"></rect>
                                        <rect id="矩形备份-70" x="55.7837838" y="0" width="8.58002534" height="8.71130005"
                                              rx="1"></rect>
                                        <rect id="矩形备份-69" x="66.2432432" y="0" width="8.71621622" height="8.71130005"
                                              rx="1"></rect>
                                        <rect id="矩形备份-68" x="77.5743243" y="0" width="8.71621622" height="8.71130005"
                                              rx="1"></rect>
                                        <rect id="矩形备份-67" x="88.9054054" y="0" width="8.71621622" height="8.71130005"
                                              rx="1"></rect>
                                        <rect id="矩形备份-66" x="100.236486" y="0" width="8.71621622" height="8.71130005"
                                              rx="1"></rect>
                                        <rect id="矩形备份-65" x="111.567568" y="0" width="8.58002534" height="8.71130005"
                                              rx="1"></rect>
                                    </g>
                                    <g id="编组-38" transform="translate(27.020270, 39.200850)">
                                        <rect id="矩形备份-77" x="4.4408921e-15" y="0" width="8.58002534"
                                              height="8.71130005" rx="1"></rect>
                                        <rect id="矩形备份-78" x="11.3310811" y="0" width="8.58002534" height="8.71130005"
                                              rx="1"></rect>
                                        <rect id="矩形备份-79" x="22.6621622" y="0" width="8.58002534" height="8.71130005"
                                              rx="1"></rect>
                                        <rect id="矩形备份-80" x="33.9932432" y="0" width="8.58002534" height="8.71130005"
                                              rx="1"></rect>
                                        <rect id="矩形备份-81" x="45.3243243" y="0" width="8.58002534" height="8.71130005"
                                              rx="1"></rect>
                                        <rect id="矩形备份-82" x="56.6554054" y="0" width="8.58002534" height="8.71130005"
                                              rx="1"></rect>
                                        <rect id="矩形备份-83" x="67.9864865" y="0" width="8.58002534" height="8.71130005"
                                              rx="1"></rect>
                                        <rect id="矩形备份-84" x="79.3175676" y="0" width="8.58002534" height="8.71130005"
                                              rx="1"></rect>
                                        <rect id="矩形备份-85" x="90.6486486" y="0" width="8.58002534" height="8.71130005"
                                              rx="1"></rect>
                                        <rect id="矩形备份-86" x="101.97973" y="0" width="8.58002534" height="8.71130005"
                                              rx="1"></rect>
                                    </g>
                                    <rect id="矩形备份-64" x="144.689189" y="28.7472902" width="20.0472973"
                                          height="8.71130005" rx="1"></rect>
                                    <rect id="矩形备份-87" x="140.331081" y="39.2008502" width="24.4054054"
                                          height="8.71130005" rx="1"></rect>
                                </g>
                                <path d="M157.570978,222.426378 L203.867386,222.430843 C205.524014,222.431582 206.866937,223.774504 206.867675,225.431132 L206.870459,254.276926 C206.871198,255.93378 205.528182,257.277055 203.871328,257.277215 C203.871135,257.277215 203.870942,257.277215 203.870749,257.276636 L157.574341,257.272171 C155.917713,257.271432 154.57479,255.928509 154.574051,254.271881 L154.571268,225.426088 C154.570529,223.769234 155.913545,222.425959 157.570399,222.425799 C157.570592,222.425799 157.570785,222.425799 157.570978,222.426378 Z"
                                      id="矩形" fill="#DDDDDD"
                                      transform="translate(180.720863, 239.851507) rotate(-10.000000) translate(-180.720863, -239.851507) "></path>
                                <g id="编组-41"
                                   transform="translate(84.206067, 40.550337) rotate(-10.000000) translate(-84.206067, -40.550337) translate(19.040138, 27.239265)"
                                   fill="#FFFFFF">
                                    <path d="M3.15693887,0 L30.1216216,0 C31.7784759,-3.04359188e-16 33.1216216,1.34314575 33.1216216,3 L33.1216216,22.2627702 C33.1216216,23.9196244 31.7784759,25.2627702 30.1216216,25.2627702 L4.13958394,25.2627702 C2.54213266,25.2627702 1.22486418,24.0109862 1.14347978,22.4156094 L0.160834704,3.15283923 C0.076423927,1.49813659 1.349397,0.0883066117 3.00409964,0.00389583472 C3.05500468,0.00129903331 3.10596764,1.34163089e-15 3.15693887,0 Z"
                                          id="矩形"></path>
                                    <path d="M42.7084445,1.75023944 L119.413113,1.7494845 C120.375327,1.74947503 121.155364,2.52949619 121.155373,3.49171052 C121.155373,3.49171623 121.155373,3.49172195 121.155373,3.49172766 C121.155373,4.45395424 120.37534,5.23399565 119.413113,5.23400512 L42.7084445,5.23476006 C41.7462302,5.23476953 40.9661937,4.45474837 40.9661842,3.49253404 C40.9661842,3.49252833 40.9661842,3.49252261 40.9661842,3.49251689 C40.9661842,2.53029032 41.746218,1.75024891 42.7084445,1.75023944 Z"
                                          id="矩形"
                                          transform="translate(81.060779, 3.492122) rotate(1.000000) translate(-81.060779, -3.492122) "></path>
                                    <path d="M42.6747359,11.5243228 L128.095621,11.5234821 C129.057835,11.5234727 129.837872,12.3034938 129.837881,13.2657081 C129.837881,13.2657139 129.837881,13.2657196 129.837881,13.2657253 C129.837881,14.2279519 129.057847,15.0079933 128.095621,15.0080027 L42.6747359,15.0088435 C41.7125216,15.0088529 40.9324851,14.2288318 40.9324756,13.2666174 C40.9324756,13.2666117 40.9324756,13.266606 40.9324756,13.2666003 C40.9324756,12.3043737 41.7125094,11.5243323 42.6747359,11.5243228 Z"
                                          id="矩形备份-99"
                                          transform="translate(85.385178, 13.266163) rotate(1.000000) translate(-85.385178, -13.266163) "></path>
                                    <path d="M42.5975855,22.0860062 L77.4644162,22.085663 C78.4266305,22.0856536 79.206667,22.8656747 79.2066765,23.8278891 C79.2066765,23.8278948 79.2066765,23.8279005 79.2066765,23.8279062 C79.2066765,24.7901328 78.4266428,25.5701742 77.4644162,25.5701837 L42.5975855,25.5705268 C41.6353711,25.5705363 40.8553346,24.7905151 40.8553252,23.8283008 C40.8553252,23.8282951 40.8553252,23.8282894 40.8553252,23.8282837 C40.8553252,22.8660571 41.6353589,22.0860157 42.5975855,22.0860062 Z"
                                          id="矩形备份-100"
                                          transform="translate(60.031001, 23.828095) rotate(1.000000) translate(-60.031001, -23.828095) "></path>
                                </g>
                                <g id="编组-42"
                                   transform="translate(185.780548, 102.424443) rotate(-11.000000) translate(-185.780548, -102.424443) translate(125.846920, 88.162580)"
                                   fill="#FFFFFF">
                                    <ellipse id="椭圆形" cx="106.773649" cy="15.2447751" rx="12.6385135"
                                             ry="12.6313851"></ellipse>
                                    <path d="M2.61390767,0.871511912 L80.1901979,0.870748398 C81.1524122,0.870738928 81.9324487,1.65076008 81.9324582,2.61297441 C81.9324582,2.61298013 81.9324582,2.61298585 81.9324582,2.61299156 C81.9324582,3.57521813 81.1524244,4.35525955 80.1901979,4.35526902 L2.61390767,4.35603253 C1.65169334,4.356042 0.871656828,3.57602085 0.871647358,2.61380652 C0.871647358,2.6138008 0.871647358,2.61379508 0.871647358,2.61378937 C0.871647358,1.6515628 1.65168109,0.871521382 2.61390767,0.871511912 Z"
                                          id="矩形"
                                          transform="translate(41.402053, 2.613390) rotate(1.000000) translate(-41.402053, -2.613390) "></path>
                                    <path d="M6.10024047,12.2265934 L80.1900442,12.2258642 C81.1522585,12.2258547 81.932295,13.0058759 81.9323045,13.9680902 C81.9323045,13.9680959 81.9323045,13.9681017 81.9323045,13.9681074 C81.9323045,14.9303339 81.1522707,15.7103754 80.1900442,15.7103848 L6.10024047,15.711114 C5.13802614,15.7111235 4.35798963,14.9311023 4.35798016,13.968888 C4.35798016,13.9688823 4.35798016,13.9688766 4.35798016,13.9688709 C4.35798016,13.0066443 5.1380139,12.2266029 6.10024047,12.2265934 Z"
                                          id="矩形备份-101"
                                          transform="translate(43.145142, 13.968489) rotate(1.000000) translate(-43.145142, -13.968489) "></path>
                                    <path d="M43.5770724,21.2797766 L78.4439032,21.2794334 C79.4061175,21.2794239 80.186154,22.0594451 80.1861635,23.0216594 C80.1861635,23.0216651 80.1861635,23.0216709 80.1861635,23.0216766 C80.1861635,23.9839032 79.4061297,24.7639446 78.4439032,24.763954 L43.5770724,24.7642972 C42.6148581,24.7643067 41.8348216,23.9842855 41.8348121,23.0220712 C41.8348121,23.0220655 41.8348121,23.0220598 41.8348121,23.022054 C41.8348121,22.0598275 42.6148459,21.2797861 43.5770724,21.2797766 Z"
                                          id="矩形备份-102"
                                          transform="translate(61.010488, 23.021865) rotate(1.000000) translate(-61.010488, -23.021865) "></path>
                                </g>
                            </g>
                        </g>
                    </g>
                    <g id="编组-10" transform="translate(296.841493, -0.000000)">
                        <g id="编组-9" transform="translate(0.000000, 0.000000)">
                            <g id="分组-13" transform="translate(73.138237, 293.042047)">
                                <g id="分组-12">
                                    <ellipse id="椭圆形" fill="#8C8C8C" cx="57.9628378" cy="57.9301453" rx="55.347973"
                                             ry="55.3167553"></ellipse>
                                    <ellipse id="椭圆形" fill="#FFFFFF" cx="55.347973" cy="55.3167553" rx="55.347973"
                                             ry="55.3167553"></ellipse>
                                    <path d="M56.6554054,99.3088206 C80.7245719,99.3088206 100.236486,79.8079112 100.236486,55.7523203 C100.236486,44.8008086 91.7544046,29.0087813 83.9869607,23.0437432 C71.1658985,30.8888181 69.441272,21.7625062 58.8542401,20.253775 C56.8269195,19.9648667 56.5463968,12.1958201 54.4391811,12.1958201 C30.3700147,12.1958201 13.0743243,31.6967295 13.0743243,55.7523203 C13.0743243,79.8079112 32.5862389,99.3088206 56.6554054,99.3088206 Z"
                                          id="椭圆形-2" fill="#9B9B9B"></path>
                                    <g id="Group-2-Copy" transform="translate(13.074324, 12.195820)"
                                       fill-rule="nonzero">
                                        <path d="M42.1828547,84.3181251 C65.4798021,84.3181251 84.3657095,65.4428699 84.3657095,42.1590625 C84.3657095,29.8692975 79.1041192,18.8077495 70.7094862,11.1017656 C63.5547532,15.3303134 56.5471826,12.6771516 52.9823948,9.13960262 C47.2649912,10.0842571 43.379064,7.84175382 42.1828547,0 C18.8859074,0 0,18.8752552 0,42.1590625 C0,65.4428699 18.8859074,84.3181251 42.1828547,84.3181251 Z"
                                              id="Oval" fill="#FFCB01"></path>
                                        <ellipse id="Oval" fill="#E2A731" cx="39.8131334" cy="39.7906778"
                                                 rx="11.9212416" ry="11.9145177"></ellipse>
                                        <ellipse id="Oval" fill="#9B9B9B" cx="42.4279983" cy="42.4040679"
                                                 rx="11.9212416" ry="11.9145177"></ellipse>
                                        <ellipse id="Oval" fill="#FFFFFF" cx="43.4539696" cy="43.4294605"
                                                 rx="10.8952703" ry="10.8891251"></ellipse>
                                        <ellipse id="Oval" stroke="#0E0E0E" stroke-width="2" cx="42.4279983"
                                                 cy="42.4040679" rx="11.9212416" ry="11.9145177"></ellipse>
                                        <path d="M9.79679979,69.6444421 C16.0898118,68.5787443 21.2741786,68.8964546 25.3499,70.5975729 C31.4634822,73.1492503 34.2391037,76.7525843 39.6149251,69.6444421 C41.1041374,67.3156747 43.1641693,66.8522764 45.7950209,68.2542473 C49.7412982,70.3572036 55.4499556,73.1886978 59.0977333,71.640842 C64.5382768,66.717047 61.7477478,57.5378965 66.3497339,55.7569342 C71.3538456,54.3765009 75.3542348,54.9997842 77.8801635,49.1507027 C78.3036863,46.7502054 76.6280539,36.8975791 83.9307434,37.0230252 C86.2396941,47.3612812 80.8464145,66.1514142 64.6881807,76.4634323 C45.2833516,88.2529816 26.9862246,85.9799849 9.79679979,69.6444421 Z"
                                              id="Path-25" fill="#E2A731"></path>
                                        <path d="M10.1327454,69.2915201 C15.6420108,75.3396214 22.0141936,79.7430314 29.2492939,82.50175 C41.3673178,85.5573735 50.4146012,84.65199 62.0427756,78.9863131 C73.67095,73.3206362 82.6407254,59.7284308 83.514974,48.2515271 C84.0693332,44.6107874 84.0693332,40.8261381 83.514974,36.8975791 C81.8665316,56.2973677 73.5021787,69.7573984 58.4219153,77.2776711 C41.9251027,83.8595151 25.8287128,81.1974647 10.1327454,69.2915201 Z"
                                              id="Path-27" fill="#BA8314"></path>
                                        <path d="M9.85751415,69.2510555 C16.8991989,68.0865039 22.7599984,68.8794012 27.4399128,71.6297477 C34.4597843,75.7552673 36.5501397,72.7974731 38.6605396,70.2958447 C40.7709394,67.7942163 42.9837185,66.3182595 50.1529082,70.7020919 C56.2911937,74.252477 62.0420569,71.2795469 62.4696502,64.7754401 C62.7213124,60.9474141 64.1145444,56.0975724 66.9984566,55.5347121 C74.6615419,53.8269297 77.6542579,53.9942693 77.6542579,46.0143516 C77.8971782,38.9535553 79.9543647,36.0513372 83.8258174,37.3076971"
                                              id="Path-22" stroke="#0E0E0E" stroke-width="2"
                                              stroke-linecap="round"></path>
                                        <path d="M42.1828547,84.3181251 C65.4798021,84.3181251 84.3657095,65.4428699 84.3657095,42.1590625 C84.3657095,29.8692975 79.1041192,18.8077495 70.7094862,11.1017656 C63.5547532,15.3303134 56.5471826,12.6771516 52.9823948,9.13960262 C47.2649912,10.0842571 43.379064,7.84175382 42.1828547,0 C18.8859074,0 0,18.8752552 0,42.1590625 C0,65.4428699 18.8859074,84.3181251 42.1828547,84.3181251 Z"
                                              id="Oval" stroke="#0E0E0E" stroke-width="2"></path>
                                        <ellipse id="椭圆形" cx="23.933277" cy="15.0269926" rx="3.66807432"
                                                 ry="3.66600544"></ellipse>
                                        <ellipse id="椭圆形-copy" cx="18.4311655" cy="20.5260007" rx="1.83403716"
                                                 ry="1.83300272"></ellipse>
                                    </g>
                                </g>
                            </g>
                            <g id="编组-8" transform="translate(0.793642, 0.000000)">
                                <ellipse id="椭圆形" fill="#8C8C8C" cx="118.540541" cy="114.460396" rx="52.2972973"
                                         ry="52.2678003"></ellipse>
                                <ellipse id="椭圆形备份-2" fill="#8C8C8C" cx="56.6554054" cy="163.679242" rx="44.0168919"
                                         ry="43.9920653"></ellipse>
                                <ellipse id="椭圆形" fill="#FFFFFF" cx="115.054054" cy="107.491356" rx="51.4256757"
                                         ry="51.3966703"></ellipse>
                                <ellipse id="椭圆形" fill="#DDDDDD" cx="131.614865" cy="68.8192704" rx="8.71621622"
                                         ry="8.71130005"></ellipse>
                                <ellipse id="椭圆形" fill="#FDAB0E" cx="96.75" cy="131.882997" rx="6.97297297"
                                         ry="6.96904004"></ellipse>
                                <path d="M146.13318,17.1941232 L127.390223,64.7023474 C126.254829,67.5802561 127.606515,70.8400282 130.445278,72.0700274 C133.147356,73.2408024 136.286923,71.9994364 137.457698,69.2973589 C137.485847,69.2323926 137.512699,69.1668721 137.538239,69.1008364 L162.063205,5.68828073 L162.063205,5.68828073 L146.13318,17.1941232 Z"
                                      id="路径-72" fill="#4A4A4A"></path>
                                <path d="M80.9934606,44.7877372 L155.022395,13.649746 C159.013495,11.9710127 161.790765,8.27243932 162.28981,3.97151139 L162.353253,3.42474415 L162.353253,3.42474415 L73.7408317,38.544785 L80.9934606,44.7877372 Z"
                                      id="路径-70" fill="#4A4A4A"></path>
                                <path d="M73.7408317,35.8001531 L157.757955,1.05900145 C159.260888,0.437537322 160.993909,0.924984688 161.952505,2.2388036 C162.662013,3.21123136 162.448875,4.57470968 161.476447,5.28421766 C161.336636,5.3862268 161.185174,5.47122075 161.02526,5.53740362 L75.3695939,40.9872338 L75.3695939,40.9872338 L73.7408317,35.8001531 Z"
                                      id="路径-67" fill="#787878"></path>
                                <ellipse id="椭圆形" fill="#D8D8D8" cx="52.2972973" cy="86.1486712" rx="52.2972973"
                                         ry="50.0899753"></ellipse>
                                <ellipse id="椭圆形备份" fill="#9B9B9B" cx="52.2972973" cy="58.2725111" rx="30.0709459"
                                         ry="31.7962452"></ellipse>
                                <ellipse id="椭圆形" fill="#D8D8D8" cx="50.9898649" cy="42.592171" rx="26.5844595"
                                         ry="23.0849451"></ellipse>
                            </g>
                            <g id="编组-7" transform="translate(127.178778, 185.550691)">
                                <g id="编组-5">
                                    <mask id="mask-5" fill="white">
                                        <use xlink:href="#path-4"></use>
                                    </mask>
                                    <use id="矩形" fill="#9B9B9B" xlink:href="#path-4"></use>
                                    <mask id="mask-7" fill="white">
                                        <use xlink:href="#path-6"></use>
                                    </mask>
                                    <use id="矩形" fill="#FFFFFF" xlink:href="#path-6"></use>
                                    <polygon id="矩形" fill="#FDAB0E" mask="url(#mask-7)"
                                             points="0 3.1237224 54.1378175 -0.871130005 54.9121622 10.8143577 0.774344656 14.8092101"></polygon>
                                    <path d="M0.774344656,14.8092101 L54.9121622,10.8143577" id="路径-81"
                                          mask="url(#mask-7)"></path>
                                </g>
                            </g>
                        </g>
                        <path d="M29.6705353,60.1864096 L29.6705353,64.5763004 L26.5147489,66.2334137 C23.1474369,68.0015999 19.0020891,67.1721426 16.5743992,64.244414 L16.5743992,64.244414 L16.5743992,64.244414 L27.5447116,58.8844077 L29.6705353,60.1864096 Z"
                              id="路径-83" fill="#4A4A4A"></path>
                        <path d="M17.779626,58.1158012 L28.1507484,57.8961453 L28.1507484,57.8961453 L29.2662226,63.0129274 L17.6567615,63.185593 C16.3146359,63.2055542 15.2104463,62.1337282 15.1904851,60.7916026 C15.1900124,60.7598196 15.1901632,60.7280305 15.1909376,60.6962535 C15.2253892,59.282438 16.3657079,58.1457473 17.779626,58.1158012 Z"
                              id="矩形" fill="#787878"
                              transform="translate(22.197792, 60.559664) rotate(-22.000000) translate(-22.197792, -60.559664) "></path>
                        <polygon id="矩形" fill="#F2F2F2"
                                 transform="translate(154.569891, 206.519220) rotate(-5.000000) translate(-154.569891, -206.519220) "
                                 points="132.389176 205.772586 176.750563 206.39472 176.750606 207.265853 132.389219 206.64372"></polygon>
                        <polygon id="矩形备份" fill="#F2F2F2"
                                 transform="translate(155.441513, 213.488260) rotate(-5.000000) translate(-155.441513, -213.488260) "
                                 points="133.260798 212.741626 177.622185 213.36376 177.622227 214.234893 133.260841 213.61276"></polygon>
                        <polygon id="矩形备份-2" fill="#F2F2F2"
                                 transform="translate(156.313134, 220.457300) rotate(-5.000000) translate(-156.313134, -220.457300) "
                                 points="134.13242 219.710666 178.493806 220.3328 178.493849 221.203934 134.132462 220.5818"></polygon>
                        <polygon id="矩形备份-3" fill="#F2F2F2"
                                 transform="translate(157.184756, 227.426340) rotate(-5.000000) translate(-157.184756, -227.426340) "
                                 points="135.004041 226.679706 179.365428 227.30184 179.365471 228.172974 135.004084 227.55084"></polygon>
                        <g id="编组" transform="translate(161.172021, 207.328941)" fill-rule="nonzero" stroke-width="0.5">
                            <path d="M11.081102,6.05365905 C12.2911024,4.39057373 11.8709444,2.09874502 10.1425672,0.934454034 C8.41419007,-0.229836951 6.0323854,0.174448983 4.82238497,1.8375343 C4.81965667,1.84015954 4.81829252,1.84409739 4.81556422,1.84672262 L0.946836815,7.16282013 C0.0615039209,8.37961578 0.368437513,10.0584525 1.63300391,10.9103407 C2.89757031,11.7622289 4.64231726,11.4668902 5.52765016,10.2500945 L9.39637757,4.93399703 C9.39910587,4.93137179 9.40047002,4.92743394 9.40319831,4.92480871 C9.96522782,4.15299011 9.77015447,3.08845799 8.96803469,2.54765992 C8.16727905,2.00686185 7.06231812,2.19456604 6.50028861,2.96638464 C6.49756031,2.96900987 6.49619616,2.97294772 6.49346786,2.97557296 L3.17176432,7.53954112 L3.73106553,7.9162621 L6.66125822,3.89046677 L7.05549737,3.34966871 C7.05686152,3.34704347 7.05958982,3.34441824 7.06095397,3.34179301 C7.40608374,2.86925101 8.08679424,2.75505336 8.57925214,3.08714537 C9.07171003,3.41923739 9.19175517,4.07292049 8.8493537,4.54677511 C8.8466254,4.54940034 8.84526125,4.55202558 8.84253295,4.55465081 L8.44556551,5.09282364 L8.44965795,5.09544888 L4.97107724,9.87337355 C4.64777386,10.3183506 4.16213671,10.6163146 3.6055638,10.7095104 C3.04899088,10.8040188 2.48832552,10.6845707 2.02587891,10.3721679 C1.5634323,10.0610777 1.25377041,9.5937862 1.15691581,9.0582386 C1.05869706,8.522691 1.18283464,7.98320555 1.50750218,7.5382285 L4.98471874,2.75899121 L4.98744704,2.76030382 L5.37759374,2.21950575 C5.38032203,2.2155679 5.38305033,2.21294267 5.38577863,2.20900482 C5.62859721,1.8769128 5.93143835,1.59863807 6.28611717,1.38599417 C6.62988279,1.17860073 7.00775215,1.03946337 7.40881204,0.971207301 C7.80987193,0.902951234 8.21502428,0.909514318 8.61199172,0.990896551 C9.02260066,1.07490402 9.40592661,1.23635587 9.75378468,1.47131425 C10.1016428,1.70496002 10.3894783,1.99767354 10.6131987,2.33895387 C10.8287343,2.66973327 10.9733342,3.03332809 11.0442699,3.41923739 C11.1152057,3.80514669 11.1083849,4.19499384 11.0238077,4.57696529 C10.9365021,4.97075029 10.7687118,5.33959558 10.5272573,5.67168759 C10.524529,5.67562544 10.5218007,5.67825068 10.5190724,5.68218853 L10.1248333,6.22036136 L6.49073956,11.217493 L7.05004077,11.594214 L11.0742812,6.06284736 C11.0770095,6.05890951 11.0797378,6.05628428 11.081102,6.05365905 Z"
                                  id="路径" stroke="#9B9B9B" fill="#9B9B9B"></path>
                            <path d="M10.6400462,5.78413511 C11.8500466,4.12104979 11.4298886,1.82922108 9.70151147,0.664930095 C7.97313431,-0.499360891 5.59132963,-0.0950749569 4.38132921,1.56801036 C4.37860091,1.5706356 4.37723676,1.57457345 4.37450846,1.57719868 L0.505781051,6.89329619 C-0.379551843,8.11009184 -0.0726182509,9.78892856 1.19194815,10.6408168 C2.45651455,11.492705 4.2012615,11.1973663 5.08659439,9.9805706 L8.9553218,4.66447309 C8.9580501,4.66184785 8.95941425,4.65791 8.96214255,4.65528477 C9.52417206,3.88346617 9.32909871,2.81893405 8.52697892,2.27813598 C7.72622329,1.73733791 6.62126235,1.9250421 6.05923284,2.6968607 C6.05650455,2.69948593 6.0551404,2.70342378 6.0524121,2.70604902 L2.73070856,7.27001718 L3.29000977,7.64673816 L6.22020246,3.62094283 L6.22429491,3.62356807 L6.61444161,3.08014477 C6.61580576,3.07751953 6.61853406,3.0748943 6.61989821,3.07226907 C6.96502798,2.59972707 7.64573848,2.48552942 8.13819637,2.81762143 C8.63065427,3.14971345 8.75069941,3.80339655 8.40829793,4.27725117 C8.40556964,4.2798764 8.40420549,4.28250164 8.40147719,4.28512687 L8.00450974,4.8232997 L8.00860219,4.82592494 L4.53002148,9.60384961 C4.2067181,10.0488267 3.72108095,10.3467906 3.16450803,10.4399864 C2.60793512,10.5344948 2.04726976,10.4150467 1.58482315,10.1026439 C1.12237653,9.7915538 0.812714644,9.32426226 0.715860043,8.78871466 C0.617641294,8.25316706 0.74177888,7.71368161 1.06644641,7.26870456 L4.54366297,2.48946727 L4.54639127,2.49077988 L4.93653797,1.94998181 C4.93926627,1.94604396 4.94199457,1.94341873 4.94472287,1.93948088 C5.18754144,1.60738886 5.49038259,1.32911413 5.8450614,1.11647023 C6.18882703,0.909076795 6.56669638,0.769939428 6.96775628,0.701683362 C7.36881617,0.633427295 7.77396851,0.639990378 8.17093596,0.721372612 C8.5815449,0.805380078 8.96487085,0.966831929 9.31272892,1.20179031 C9.66058699,1.43543608 9.94842249,1.7281496 10.172143,2.06942993 C10.3876786,2.40020933 10.5322784,2.76380415 10.6032142,3.14971345 C10.6741499,3.53562275 10.6673292,3.9254699 10.5827519,4.30744135 C10.4954464,4.70122635 10.327656,5.07007164 10.0862016,5.40216366 C10.0834733,5.40610151 10.080745,5.40872674 10.0780167,5.41266459 L9.68377753,5.95083742 L9.68514168,5.95215004 L6.0496838,10.9479691 L6.60898501,11.3246901 L10.6332254,5.79332342 C10.6359537,5.78938557 10.638682,5.78676034 10.6400462,5.78413511 Z"
                                  id="路径" stroke="#4A4A4A" fill="#4A4A4A"></path>
                        </g>
                    </g>
                    <ellipse id="椭圆形" fill="#FFFFFF" cx="402.22973" cy="324.060362" rx="2.61486486"
                             ry="2.61339002"></ellipse>
                    <ellipse id="椭圆形备份-3" fill="#FFFFFF" cx="397" cy="330.158272" rx="1.74324324"
                             ry="1.74226001"></ellipse>
                    <path d="M133.793919,166.009376 C145.58641,164.212269 154.598624,157.741882 165.937124,150.229426 C178.517658,141.894045 232.846074,96.3071903 228.195548,91.0449589 C224.23547,86.5639926 144.208022,117.078311 133.793919,122.874753 C124.49299,128.051607 111.567568,137.731905 111.567568,148.316365 C111.567568,158.900825 122.001427,167.806484 133.793919,166.009376 Z"
                          id="椭圆形" fill="url(#linearGradient-8)"></path>
                </g>
            </g>
        </g>
    </g>
</svg>